<svg width="53" height="46" viewBox="0 0 53 46" fill="none" xmlns="http://www.w3.org/2000/svg">
<path d="M44.72 32.38H17L11.11 7.38H49.61L44.72 32.38Z" stroke="#3A4651" stroke-width="5" stroke-linecap="round" stroke-linejoin="round"/>
<path d="M23.11 42.88C23.9384 42.88 24.61 42.2084 24.61 41.38C24.61 40.5516 23.9384 39.88 23.11 39.88C22.2816 39.88 21.61 40.5516 21.61 41.38C21.61 42.2084 22.2816 42.88 23.11 42.88Z" stroke="#3A4651" stroke-width="5" stroke-linecap="round" stroke-linejoin="round"/>
<path d="M38.11 42.88C38.9384 42.88 39.61 42.2084 39.61 41.38C39.61 40.5516 38.9384 39.88 38.11 39.88C37.2816 39.88 36.61 40.5516 36.61 41.38C36.61 42.2084 37.2816 42.88 38.11 42.88Z" stroke="#3A4651" stroke-width="5" stroke-linecap="round" stroke-linejoin="round"/>
<path d="M46.61 19.88H32.61" stroke="#3A4651" stroke-width="5" stroke-linecap="round" stroke-linejoin="round"/>
<path d="M11.17 7.56L8.60001 5C7.36153 3.7583 5.70209 3.02672 3.95001 2.95001L2.60999 2.89001" stroke="#3A4651" stroke-width="5" stroke-linecap="round" stroke-linejoin="round"/>
</svg>
